<?xml version="1.0" encoding="iso-8859-1"?>
<!-- Uploaded to: SVG Repo, www.svgrepo.com, Generator: SVG Repo Mixer Tools -->
<svg height="800px" width="800px" version="1.1" id="Layer_1" xmlns="http://www.w3.org/2000/svg" xmlns:xlink="http://www.w3.org/1999/xlink" 
	 viewBox="0 0 512 512" xml:space="preserve">
<circle style="fill:#00447D;" cx="256" cy="256" r="256"/>
<path style="fill:#062964;" d="M270.936,511.555C405.368,503.82,512,392.37,512,256c0-8.795-0.445-17.487-1.31-26.055
	L345.514,64.769l-1.493,96.146L145.155,385.776L270.936,511.555z"/>
<path style="fill:#72BD39;" d="M333.138,55.822c0,0,28.232,11.923,30.842,52.933c2.612,41.015-23.883,56.435-23.883,56.435
	s-28.236-11.923-30.844-52.934C306.641,71.24,333.138,55.822,333.138,55.822z"/>
<path style="fill:#51A448;" d="M363.98,108.754c-2.61-41.012-30.842-52.934-30.842-52.934s-0.169,0.1-0.45,0.283l6.937,108.87
	c0.295,0.141,0.471,0.217,0.471,0.217S366.592,149.769,363.98,108.754z"/>
<path style="fill:#F3D64E;" d="M324.636,344.345c46.83-46.847,62.086-109.704,39.379-150.175c0.705-0.536,1.396-1.108,2.041-1.751
	c7.623-7.628,7.623-19.994,0-27.624c-7.625-7.628-19.989-7.628-27.612,0c-0.643,0.643-1.215,1.334-1.75,2.041
	c-40.458-22.714-103.295-7.452-150.119,39.391c-46.83,46.845-62.086,109.699-39.379,150.171c-0.703,0.538-1.395,1.107-2.041,1.751
	c-7.623,7.628-7.623,19.996,0,27.62c7.627,7.628,19.987,7.628,27.612,0c0.645-0.646,1.215-1.334,1.75-2.041
	C214.976,406.447,277.811,391.187,324.636,344.345z"/>
<path style="fill:#EEBB46;" d="M364.016,194.172c0.705-0.536,1.396-1.108,2.041-1.751c7.623-7.628,7.623-19.994,0-27.624
	c-0.079-0.079-0.165-0.145-0.247-0.222L144.631,385.193c0.178,0.193,0.338,0.395,0.526,0.581c7.627,7.628,19.987,7.628,27.612,0
	c0.645-0.646,1.215-1.334,1.75-2.041c40.458,22.714,103.295,7.452,150.119-39.39C371.467,297.498,386.722,234.643,364.016,194.172z"
	/>
</svg>