<?xml version="1.0" encoding="iso-8859-1"?>
<!-- Uploaded to: SVG Repo, www.svgrepo.com, Generator: SVG Repo Mixer Tools -->
<!DOCTYPE svg PUBLIC "-//W3C//DTD SVG 1.1//EN" "http://www.w3.org/Graphics/SVG/1.1/DTD/svg11.dtd">
<svg fill="#000000" version="1.1" id="Capa_1" xmlns="http://www.w3.org/2000/svg" xmlns:xlink="http://www.w3.org/1999/xlink" 
	 width="800px" height="800px" viewBox="0 0 399.415 399.415"
	 xml:space="preserve">
<g>
	<g>
		<path d="M220.79,198.797V31.386c0-1.678-0.685-3.285-1.903-4.453c-1.226-1.168-2.883-1.837-4.54-1.69
			c-2.942,0.135-72.159,4.9-72.159,139.882c0,3.399,2.747,6.149,6.148,6.149h21.726v27.523c-7.503,1.939-13.066,8.701-13.066,16.808
			v141.148c0,9.626,7.809,17.433,17.426,17.433h42.01c9.613,0,17.426-7.807,17.426-17.433V215.604
			C233.856,207.498,228.284,200.736,220.79,198.797z"/>
		<path d="M104.777,25.237h-3.579c-6.93,0-13.109,3.062-17.426,7.839c-4.317-4.777-10.496-7.839-17.426-7.839h-3.579
			c-7.146,0-13.483,3.264-17.807,8.313c-4.324-5.044-10.662-8.313-17.808-8.313h-3.579C10.583,25.237,0,35.818,0,48.818v64.287
			c0,1.132,0.387,2.126,0.909,3.029c1.138,26.01,16.546,48.183,38.29,58.066v24.59c-7.503,1.939-13.066,8.701-13.066,16.808v141.148
			c0,9.626,7.809,17.432,17.426,17.432h42.01c9.616,0,17.426-7.806,17.426-17.432V215.604c0-8.106-5.563-14.868-13.066-16.808
			v-24.59c22.59-10.268,38.431-33.771,38.431-61.102V48.818C128.353,35.818,117.769,25.237,104.777,25.237z"/>
		<path d="M335.62,25.237c-35.177,0-63.795,29.883-63.795,66.623v24.203c0,27.319,15.84,50.831,38.431,61.102v21.638
			c-7.507,1.939-13.066,8.701-13.066,16.808v141.148c0,9.626,7.806,17.433,17.426,17.433h42.003c9.626,0,17.433-7.807,17.433-17.433
			V215.604c0-8.106-5.561-14.868-13.066-16.808v-21.638c22.584-10.271,38.431-33.771,38.431-61.102V91.854
			C399.415,55.12,370.796,25.237,335.62,25.237z"/>
	</g>
</g>
</svg>