<?xml version="1.0" encoding="iso-8859-1"?>
<!-- Uploaded to: SVG Repo, www.svgrepo.com, Generator: SVG Repo Mixer Tools -->
<svg height="800px" width="800px" version="1.1" id="Layer_1" xmlns="http://www.w3.org/2000/svg" xmlns:xlink="http://www.w3.org/1999/xlink" 
	 viewBox="0 0 512.001 512.001" xml:space="preserve">
<polyline style="fill:#CCC3A8;" points="51.266,473.578 68.512,503.916 128.488,503.916 130.045,503.916 140.349,503.916 
	143.964,503.916 151.417,503.916 152.974,503.916 163.366,503.916 200.326,503.916 201.883,503.916 203.94,503.916 205.498,503.916 
	212.951,503.916 215.801,503.916 223.252,503.916 223.342,503.916 224.809,503.916 224.9,503.916 226.869,503.916 228.426,503.916 
	235.203,503.916 238.818,503.916 246.271,503.916 247.829,503.916 275.778,503.916 277.336,503.916 284.786,503.916 
	288.404,503.916 295.18,503.916 296.738,503.916 298.704,503.916 298.794,503.916 300.262,503.916 300.352,503.916 307.806,503.916 
	310.655,503.916 318.106,503.916 319.664,503.916 321.723,503.916 323.281,503.916 360.238,503.916 370.633,503.916 372.19,503.916 
	379.64,503.916 383.258,503.916 393.558,503.916 395.117,503.916 455.093,503.916 472.339,473.578 "/>
<path style="fill:#C9B585;" d="M94.507,497.853l-12.735-30.435c-0.696-1.663-0.516-3.566,0.484-5.066
	c1-1.502,2.684-2.403,4.486-2.403H64.139c-1.803,0-3.487,0.902-4.487,2.403c-0.998,1.501-1.181,3.403-0.484,5.066l12.735,30.435
	c0.839,2.005,2.799,3.309,4.971,3.309h22.604C97.307,501.162,95.347,499.858,94.507,497.853z"/>
<path style="fill:#CCC3A8;" d="M381.46,8.086h107.172c8.442,0,15.284,6.842,15.284,15.282c0,8.442-6.842,15.284-15.284,15.284
	H364.706h-22.634h-48.218h-75.707h-48.218h-22.636H23.369c-8.442,0-15.284-6.842-15.284-15.284c0-8.44,6.842-15.282,15.284-15.282
	h123.925h22.634h48.218h75.707h58.997"/>
<path style="fill:#C9B585;" d="M37.621,22.77c0-8.44,6.842-15.282,15.284-15.282H30.301c-8.442,0-15.284,6.842-15.284,15.282
	c0,8.442,6.842,15.284,15.284,15.284h22.604C44.463,38.055,37.621,31.212,37.621,22.77z"/>
<path style="fill:#E35F46;" d="M423.569,395.045c0,7.143-5.791,12.935-12.935,12.935h-56.585c-7.145,0-12.935-5.792-12.935-12.935
	v-25.754c0-7.145,5.789-12.935,12.935-12.935h56.585c7.143,0,12.935,5.789,12.935,12.935V395.045z"/>
<path style="fill:#FFB92E;" d="M303.028,395.045c0,7.143-5.789,12.935-12.935,12.935h-56.585c-7.143,0-12.935-5.792-12.935-12.935
	v-25.754c0-7.145,5.792-12.935,12.935-12.935h56.585c7.145,0,12.935,5.789,12.935,12.935V395.045z"/>
<path style="fill:#4BAF78;" d="M182.49,395.045c0,7.143-5.792,12.935-12.935,12.935h-56.587c-7.143,0-12.935-5.792-12.935-12.935
	v-25.754c0-7.145,5.792-12.935,12.935-12.935h56.587c7.143,0,12.935,5.789,12.935,12.935V395.045z"/>
<path style="fill:#FFB92E;" d="M360.131,295.022c-7.145,0-12.935-5.792-12.935-12.935v-56.313c0-7.145,5.789-12.935,12.935-12.935
	h41.728c7.143,0,12.935,5.789,12.935,12.935v56.313c0,7.143-5.792,12.935-12.935,12.935H360.131z"/>
<path style="fill:#F28838;" d="M414.794,282.087V255.14h-67.598v26.947c0,7.143,5.789,12.935,12.935,12.935h41.728
	C409.002,295.022,414.794,289.23,414.794,282.087z"/>
<g>
	<path style="fill:#36A1CB;" d="M301.871,149.714h41.17c-2.32-5.181-3.62-10.916-3.62-16.957c0-6.044,1.299-11.779,3.62-16.96
		H181.896c2.317,5.181,3.616,10.916,3.616,16.96c0,6.042-1.299,11.777-3.616,16.957h92.701"/>
	<path style="fill:#36A1CB;" d="M397.954,170.709c-5.181,2.32-10.916,3.618-16.957,3.618c-6.044,0-11.779-1.299-16.96-3.618v42.13
		h33.918v-42.13H397.954z"/>
	<path style="fill:#36A1CB;" d="M147.294,38.652H126.98v56.147c5.181-2.317,10.916-3.618,16.957-3.618
		c6.044,0,11.779,1.301,16.96,3.618v-46.17v-9.977C160.897,38.652,147.294,38.652,147.294,38.652z"/>
</g>
<path style="fill:#DFDBCC;" d="M428.392,473.578h42.285c17.977,0,32.549-14.573,32.549-32.549v-0.499
	c0-17.977-14.573-32.549-32.549-32.549H41.326c-17.979,0-32.551,14.573-32.551,32.549v0.499c0,17.977,14.573,32.549,32.551,32.549
	h360.119"/>
<g>
	<path style="fill:#FFB92E;" d="M380.996,91.181c-22.96,0-41.574,18.615-41.574,41.574s18.615,41.572,41.574,41.572
		c22.96,0,41.572-18.613,41.572-41.572S403.957,91.181,380.996,91.181z M380.996,148.09c-8.471,0-15.337-6.865-15.337-15.335
		c0-8.471,6.865-15.337,15.337-15.337c8.469,0,15.335,6.865,15.335,15.337C396.331,141.225,389.465,148.09,380.996,148.09z"/>
	<path style="fill:#FFB92E;" d="M143.938,91.181c-22.96,0-41.572,18.615-41.572,41.574s18.613,41.572,41.572,41.572
		c22.962,0,41.574-18.613,41.574-41.572S166.901,91.181,143.938,91.181z M143.94,148.09c-8.471,0-15.337-6.865-15.337-15.335
		c0-8.471,6.865-15.337,15.337-15.337c8.469,0,15.335,6.865,15.335,15.337C159.276,141.225,152.409,148.09,143.94,148.09z"/>
</g>
<path style="fill:#D8422E;" d="M370.651,393.368v-25.753c0-7.145,5.789-12.935,12.935-12.935h-22.604
	c-7.145,0-12.935,5.789-12.935,12.935v25.754c0,7.143,5.789,12.935,12.935,12.935h22.604
	C376.44,406.303,370.651,400.512,370.651,393.368z"/>
<path style="fill:#EF9A1D;" d="M251.188,393.368v-25.753c0-7.145,5.792-12.935,12.935-12.935h-22.604
	c-7.143,0-12.935,5.789-12.935,12.935v25.754c0,7.143,5.792,12.935,12.935,12.935h22.604
	C256.98,406.303,251.188,400.512,251.188,393.368z"/>
<path style="fill:#299956;" d="M130.648,393.368v-25.753c0-7.145,5.792-12.935,12.935-12.935h-22.604
	c-7.143,0-12.935,5.789-12.935,12.935v25.754c0,7.143,5.792,12.935,12.935,12.935h22.604
	C136.439,406.303,130.648,400.512,130.648,393.368z"/>
<path style="fill:#EF9A1D;" d="M377.811,280.411v-56.313c0-7.145,5.789-12.935,12.935-12.935h-22.604
	c-7.145,0-12.935,5.789-12.935,12.935v56.313c0,7.143,5.789,12.935,12.935,12.935h22.604
	C383.601,293.346,377.811,287.554,377.811,280.411z"/>
<path style="fill:#D8CFB2;" d="M38.311,440.43v-0.499c0-17.977,14.573-32.549,32.551-32.549H48.259
	c-17.979,0-32.551,14.573-32.551,32.549v0.499c0,17.977,14.572,32.549,32.551,32.549h22.604
	C52.885,472.979,38.311,458.406,38.311,440.43z"/>
<g>
	<path style="fill:#EF9A1D;" d="M368.959,132.157c0-19.041,12.806-35.081,30.273-40.006c-3.595-1.014-7.382-1.568-11.302-1.568
		c-22.96,0-41.574,18.614-41.574,41.574s18.615,41.572,41.574,41.572c3.92,0,7.707-0.554,11.302-1.568
		C381.765,167.237,368.959,151.199,368.959,132.157z"/>
	<path style="fill:#EF9A1D;" d="M132.98,134.313c0-19.041,12.806-35.082,30.271-40.006c-3.596-1.014-7.384-1.568-11.303-1.568
		c-22.96,0-41.572,18.614-41.572,41.574s18.613,41.572,41.572,41.572c3.92,0,7.707-0.554,11.303-1.567
		C145.787,169.393,132.98,153.355,132.98,134.313z"/>
</g>
<path style="fill:#EF711D;" d="M377.811,280.411v-26.947h-22.604v26.947c0,7.143,5.789,12.935,12.935,12.935h22.604
	C383.601,293.346,377.811,287.554,377.811,280.411z"/>
<g>
	<path style="fill:#231F20;" d="M57.461,432.693H43.988c-4.466,0-8.084,3.618-8.084,8.084s3.618,8.084,8.084,8.084h13.474
		c4.466,0,8.084-3.618,8.084-8.084S61.926,432.693,57.461,432.693z"/>
	<path style="fill:#231F20;" d="M269.973,432.693h-26.565c-4.466,0-8.084,3.618-8.084,8.084s3.618,8.084,8.084,8.084h26.565
		c4.466,0,8.084-3.618,8.084-8.084S274.437,432.693,269.973,432.693z"/>
	<path style="fill:#231F20;" d="M323.101,432.693h-26.565c-4.466,0-8.084,3.618-8.084,8.084s3.618,8.084,8.084,8.084h26.565
		c4.466,0,8.084-3.618,8.084-8.084S327.566,432.693,323.101,432.693z"/>
	<path style="fill:#231F20;" d="M376.228,432.693h-26.564c-4.466,0-8.084,3.618-8.084,8.084s3.618,8.084,8.084,8.084h26.564
		c4.466,0,8.084-3.618,8.084-8.084S380.694,432.693,376.228,432.693z"/>
	<path style="fill:#231F20;" d="M429.356,432.693h-26.565c-4.466,0-8.084,3.618-8.084,8.084s3.618,8.084,8.084,8.084h26.565
		c4.466,0,8.084-3.618,8.084-8.084S433.822,432.693,429.356,432.693z"/>
	<path style="fill:#231F20;" d="M216.845,432.693H190.28c-4.466,0-8.084,3.618-8.084,8.084s3.618,8.084,8.084,8.084h26.565
		c4.466,0,8.084-3.618,8.084-8.084S221.309,432.693,216.845,432.693z"/>
	<path style="fill:#231F20;" d="M110.589,432.693H84.025c-4.466,0-8.084,3.618-8.084,8.084s3.618,8.084,8.084,8.084h26.565
		c4.466,0,8.084-3.618,8.084-8.084S115.054,432.693,110.589,432.693z"/>
	<path style="fill:#231F20;" d="M163.717,432.693h-26.565c-4.466,0-8.084,3.618-8.084,8.084s3.618,8.084,8.084,8.084h26.565
		c4.466,0,8.084-3.618,8.084-8.084S168.182,432.693,163.717,432.693z"/>
	<path style="fill:#231F20;" d="M469.394,432.693h-13.474c-4.466,0-8.084,3.618-8.084,8.084s3.618,8.084,8.084,8.084h13.474
		c4.466,0,8.084-3.618,8.084-8.084S473.859,432.693,469.394,432.693z"/>
	<path style="fill:#231F20;" d="M23.369,46.736h95.528v43.163c-14.71,8.63-24.615,24.603-24.615,42.855
		c0,27.381,22.276,49.656,49.656,49.656c18.252,0,34.225-9.905,42.855-24.615h87.803c4.466,0,8.084-3.618,8.084-8.084
		c0-4.466-3.618-8.084-8.084-8.084h-81.791c0.052-0.285,0.088-0.571,0.135-0.856c0.043-0.263,0.086-0.527,0.125-0.791
		c0.078-0.534,0.144-1.07,0.205-1.607c0.03-0.263,0.063-0.524,0.088-0.788c0.055-0.566,0.095-1.135,0.13-1.705
		c0.015-0.236,0.036-0.47,0.047-0.706c0.039-0.804,0.061-1.609,0.061-2.42c0-0.809-0.023-1.617-0.061-2.421
		c-0.011-0.235-0.032-0.467-0.046-0.701c-0.036-0.572-0.075-1.145-0.13-1.714c-0.025-0.26-0.057-0.517-0.087-0.776
		c-0.061-0.542-0.128-1.083-0.207-1.623c-0.038-0.259-0.08-0.514-0.122-0.772c-0.047-0.29-0.085-0.582-0.137-0.871h139.324
		c-0.053,0.29-0.091,0.583-0.138,0.873c-0.041,0.255-0.083,0.51-0.121,0.766c-0.079,0.541-0.147,1.083-0.207,1.628
		c-0.029,0.258-0.061,0.514-0.086,0.773c-0.055,0.57-0.096,1.143-0.13,1.716c-0.015,0.233-0.036,0.465-0.046,0.698
		c-0.039,0.804-0.061,1.61-0.061,2.421c0,0.809,0.023,1.616,0.061,2.42c0.012,0.236,0.032,0.471,0.047,0.706
		c0.036,0.57,0.075,1.139,0.13,1.705c0.026,0.264,0.058,0.525,0.088,0.788c0.06,0.538,0.127,1.074,0.205,1.607
		c0.039,0.264,0.082,0.526,0.124,0.789c0.046,0.286,0.084,0.573,0.136,0.858h-30.259c-4.466,0-8.084,3.618-8.084,8.084
		c0,4.466,3.618,8.084,8.084,8.084h36.271c4.313,7.352,10.459,13.497,17.811,17.811v29.567c-9.594,1.943-16.84,10.44-16.84,20.598
		v29.366v26.947c0,11.589,9.429,21.019,21.019,21.019h12.781v25.067c0,4.466,3.618,8.084,8.084,8.084
		c4.466,0,8.084-3.618,8.084-8.084v-25.067h12.778c11.59,0,21.019-9.429,21.019-21.019v-26.947v-29.366
		c0-10.159-7.246-18.655-16.84-20.598v-29.567c14.71-8.63,24.615-24.602,24.615-42.854c0-27.382-22.276-49.658-49.656-49.658
		c-18.252,0-34.224,9.905-42.855,24.615H186.793c-4.313-7.351-10.459-13.497-17.81-17.81V46.736h319.649
		c12.885,0,23.369-10.484,23.369-23.369c0-12.884-10.484-23.367-23.369-23.367H381.46c-4.466,0-8.084,3.618-8.084,8.084
		s3.618,8.084,8.084,8.084h107.172c3.971,0,7.2,3.229,7.2,7.198c0,3.971-3.229,7.2-7.2,7.2H160.898H126.98H23.369
		c-3.971,0-7.2-3.229-7.2-7.2c0-3.969,3.229-7.198,7.2-7.198h329.483c4.466,0,8.084-3.618,8.084-8.084s-3.618-8.084-8.084-8.084
		H23.369C10.484,0.002,0,10.485,0,23.369C0,36.254,10.484,46.736,23.369,46.736z M406.71,282.087c0,2.674-2.176,4.851-4.851,4.851
		h-41.728c-2.674,0-4.851-2.176-4.851-4.851v-18.863h51.429V282.087z M406.71,247.056H355.28v-21.282
		c0-2.674,2.176-4.851,4.851-4.851h3.905h33.918h3.905c2.674,0,4.851,2.176,4.851,4.851L406.71,247.056L406.71,247.056z
		 M389.87,181.62v23.135h-17.75V181.62c0.287,0.052,0.577,0.089,0.864,0.136c0.262,0.043,0.523,0.085,0.786,0.124
		c0.521,0.075,1.042,0.14,1.566,0.199c0.285,0.032,0.569,0.068,0.856,0.096c0.514,0.049,1.03,0.084,1.547,0.117
		c0.291,0.019,0.58,0.044,0.872,0.058c0.656,0.031,1.314,0.045,1.973,0.05c0.138,0.001,0.274,0.011,0.412,0.011
		c0.142,0,0.282-0.01,0.424-0.011c0.652-0.005,1.305-0.019,1.956-0.05c0.298-0.014,0.592-0.04,0.887-0.059
		c0.511-0.033,1.021-0.068,1.53-0.116c0.292-0.028,0.582-0.064,0.872-0.097c0.517-0.059,1.033-0.123,1.547-0.197
		c0.269-0.039,0.538-0.083,0.806-0.127C389.303,181.709,389.588,181.671,389.87,181.62z M380.996,99.265
		c18.465,0,33.488,15.024,33.488,33.49c0,13.701-8.275,25.501-20.086,30.68c-0.333,0.146-0.669,0.285-1.006,0.419
		c-0.195,0.079-0.389,0.157-0.586,0.232c-0.327,0.124-0.655,0.238-0.984,0.351c-0.219,0.075-0.435,0.152-0.655,0.222
		c-0.3,0.096-0.6,0.182-0.902,0.269c-0.253,0.073-0.504,0.149-0.76,0.217c-0.267,0.07-0.537,0.13-0.805,0.194
		c-0.29,0.068-0.578,0.14-0.87,0.202c-0.238,0.05-0.479,0.089-0.719,0.134c-0.321,0.059-0.641,0.123-0.966,0.174
		c-0.233,0.036-0.467,0.061-0.7,0.092c-0.331,0.044-0.661,0.093-0.995,0.127c-0.279,0.028-0.562,0.044-0.842,0.066
		c-0.291,0.023-0.58,0.052-0.872,0.067c-0.577,0.029-1.157,0.045-1.738,0.045c-0.581,0-1.161-0.015-1.738-0.045
		c-0.303-0.015-0.603-0.045-0.903-0.069c-0.271-0.022-0.541-0.036-0.811-0.064c-0.347-0.036-0.69-0.085-1.034-0.132
		c-0.22-0.029-0.441-0.053-0.66-0.087c-0.338-0.053-0.673-0.117-1.007-0.18c-0.225-0.042-0.452-0.079-0.676-0.125
		c-0.306-0.064-0.609-0.139-0.912-0.211c-0.254-0.06-0.509-0.117-0.762-0.183c-0.269-0.07-0.535-0.151-0.801-0.227
		c-0.287-0.083-0.573-0.165-0.858-0.255c-0.234-0.074-0.465-0.156-0.696-0.236c-0.315-0.108-0.629-0.218-0.941-0.335
		c-0.21-0.08-0.417-0.164-0.625-0.247c-0.322-0.129-0.645-0.262-0.965-0.402c-7.713-3.378-13.916-9.578-17.297-17.29
		c-0.144-0.33-0.281-0.661-0.414-0.994c-0.08-0.198-0.16-0.397-0.236-0.596c-0.123-0.323-0.236-0.649-0.348-0.975
		c-0.075-0.221-0.154-0.441-0.225-0.663c-0.095-0.296-0.18-0.595-0.266-0.893c-0.074-0.257-0.151-0.512-0.22-0.771
		c-0.069-0.262-0.128-0.527-0.191-0.791c-0.07-0.293-0.142-0.586-0.205-0.883c-0.05-0.236-0.088-0.473-0.133-0.71
		c-0.06-0.323-0.124-0.647-0.175-0.973c-0.036-0.232-0.06-0.466-0.092-0.698c-0.044-0.332-0.093-0.662-0.127-0.996
		c-0.029-0.28-0.044-0.562-0.066-0.842c-0.023-0.291-0.052-0.58-0.067-0.873c-0.029-0.577-0.045-1.157-0.045-1.738
		c0-0.581,0.015-1.161,0.045-1.738c0.015-0.304,0.045-0.604,0.069-0.904c0.022-0.269,0.036-0.541,0.064-0.809
		c0.036-0.348,0.085-0.691,0.132-1.036c0.029-0.219,0.053-0.44,0.086-0.658c0.053-0.341,0.119-0.677,0.182-1.014
		c0.041-0.222,0.078-0.446,0.124-0.667c0.065-0.31,0.14-0.617,0.213-0.925c0.059-0.249,0.115-0.499,0.18-0.748
		c0.071-0.273,0.153-0.541,0.231-0.812c0.082-0.283,0.163-0.567,0.253-0.848c0.075-0.237,0.158-0.471,0.239-0.705
		c0.108-0.312,0.216-0.623,0.332-0.931c0.081-0.213,0.166-0.425,0.251-0.636c0.128-0.319,0.259-0.637,0.397-0.953
		C355.481,107.55,367.287,99.265,380.996,99.265z M143.938,166.243c-18.465,0-33.488-15.024-33.488-33.488
		c0-13.706,8.279-25.509,20.097-30.688c0.329-0.143,0.66-0.28,0.992-0.413c0.195-0.078,0.389-0.157,0.585-0.232
		c0.334-0.126,0.67-0.244,1.008-0.359c0.208-0.071,0.415-0.144,0.625-0.212c0.315-0.101,0.633-0.192,0.951-0.283
		c0.237-0.068,0.473-0.14,0.712-0.203c0.287-0.075,0.576-0.141,0.864-0.208c0.271-0.064,0.539-0.132,0.812-0.189
		c0.263-0.055,0.528-0.099,0.792-0.147c0.298-0.055,0.595-0.113,0.896-0.161c0.258-0.04,0.517-0.068,0.776-0.102
		c0.307-0.04,0.613-0.086,0.923-0.117c0.298-0.03,0.597-0.047,0.896-0.07c0.274-0.02,0.545-0.049,0.821-0.063
		c0.577-0.029,1.157-0.045,1.739-0.045c0.582,0,1.161,0.015,1.739,0.045c0.28,0.014,0.556,0.042,0.834,0.064
		c0.294,0.023,0.589,0.039,0.882,0.069c0.317,0.032,0.631,0.079,0.944,0.121c0.251,0.033,0.503,0.06,0.753,0.099
		c0.31,0.049,0.617,0.109,0.924,0.166c0.254,0.046,0.509,0.088,0.762,0.141c0.283,0.059,0.564,0.129,0.845,0.195
		c0.277,0.066,0.554,0.127,0.829,0.2c0.251,0.066,0.499,0.141,0.748,0.213c0.305,0.088,0.61,0.175,0.913,0.272
		c0.223,0.071,0.442,0.149,0.663,0.224c0.323,0.111,0.647,0.223,0.967,0.345c0.21,0.08,0.418,0.164,0.626,0.247
		c0.318,0.127,0.635,0.258,0.949,0.396c7.744,3.388,13.967,9.62,17.342,17.371c0.116,0.268,0.229,0.539,0.337,0.811
		c0.101,0.25,0.203,0.5,0.297,0.753c0.105,0.277,0.201,0.556,0.298,0.835c0.091,0.26,0.182,0.52,0.265,0.783
		c0.084,0.262,0.158,0.527,0.235,0.79c0.083,0.287,0.169,0.571,0.245,0.861c0.063,0.236,0.115,0.475,0.171,0.712
		c0.075,0.317,0.154,0.633,0.221,0.954c0.045,0.218,0.081,0.438,0.122,0.656c0.064,0.34,0.129,0.678,0.183,1.022
		c0.033,0.22,0.057,0.441,0.087,0.662c0.046,0.344,0.096,0.686,0.131,1.033c0.027,0.267,0.042,0.537,0.063,0.805
		c0.024,0.303,0.054,0.604,0.069,0.908c0.029,0.577,0.045,1.157,0.045,1.738c0,0.581-0.015,1.161-0.045,1.738
		c-0.015,0.299-0.045,0.593-0.068,0.889c-0.022,0.275-0.037,0.551-0.065,0.824c-0.034,0.338-0.084,0.673-0.128,1.009
		c-0.03,0.23-0.055,0.459-0.091,0.688c-0.052,0.333-0.116,0.662-0.178,0.991c-0.043,0.23-0.081,0.46-0.128,0.689
		c-0.065,0.309-0.14,0.614-0.213,0.921c-0.059,0.25-0.115,0.5-0.18,0.748c-0.072,0.277-0.155,0.55-0.235,0.825
		c-0.081,0.277-0.16,0.555-0.247,0.83c-0.08,0.25-0.167,0.496-0.252,0.744c-0.101,0.293-0.203,0.586-0.313,0.877
		c-0.091,0.239-0.186,0.476-0.282,0.714c-0.115,0.286-0.232,0.57-0.356,0.854C169.484,157.939,157.665,166.243,143.938,166.243z
		 M152.814,46.736v37.153c-0.277-0.051-0.557-0.086-0.836-0.133c-0.274-0.045-0.549-0.089-0.824-0.13
		c-0.527-0.078-1.055-0.142-1.586-0.203c-0.267-0.03-0.534-0.064-0.802-0.089c-0.565-0.055-1.132-0.094-1.7-0.129
		c-0.237-0.015-0.472-0.036-0.709-0.047c-0.804-0.039-1.61-0.061-2.42-0.061c-0.81,0-1.616,0.023-2.419,0.061
		c-0.239,0.012-0.475,0.033-0.714,0.047c-0.566,0.036-1.13,0.075-1.692,0.129c-0.273,0.027-0.543,0.06-0.814,0.092
		c-0.524,0.059-1.047,0.124-1.568,0.199c-0.282,0.041-0.564,0.087-0.845,0.134c-0.274,0.045-0.549,0.08-0.821,0.129V46.736H152.814z
		"/>
	<path style="fill:#231F20;" d="M143.94,109.335c-12.914,0-23.421,10.506-23.421,23.421c0,12.913,10.506,23.419,23.421,23.419
		c12.913,0,23.419-10.505,23.419-23.419C167.36,119.841,156.855,109.335,143.94,109.335z M143.94,140.006
		c-3.999,0-7.253-3.253-7.253-7.251c0-3.999,3.254-7.253,7.253-7.253c3.998,0,7.251,3.254,7.251,7.253
		C151.191,136.753,147.938,140.006,143.94,140.006z"/>
	<path style="fill:#231F20;" d="M380.996,156.174c12.913,0,23.419-10.505,23.419-23.419s-10.505-23.421-23.419-23.421
		s-23.421,10.506-23.421,23.421C357.575,145.669,368.081,156.174,380.996,156.174z M380.996,125.503
		c3.998,0,7.251,3.254,7.251,7.253c0,3.998-3.253,7.251-7.251,7.251c-3.999,0-7.253-3.253-7.253-7.251
		C373.743,128.756,376.997,125.503,380.996,125.503z"/>
	<path style="fill:#231F20;" d="M470.676,399.895h-39.61c0.371-1.56,0.587-3.179,0.587-4.85v-25.754
		c0-11.59-9.429-21.019-21.019-21.019h-56.585c-11.59,0-21.019,9.429-21.019,21.019v25.754c0,1.672,0.217,3.291,0.587,4.85h-23.093
		c0.371-1.56,0.587-3.179,0.587-4.85v-25.754c0-11.59-9.429-21.019-21.019-21.019h-56.585c-11.589,0-21.019,9.429-21.019,21.019
		v25.754c0,1.672,0.217,3.291,0.587,4.85h-23.091c0.371-1.56,0.587-3.179,0.587-4.85v-25.754c0-11.59-9.429-21.019-21.019-21.019
		h-56.587c-11.589,0-21.019,9.429-21.019,21.019v25.754c0,1.672,0.217,3.291,0.587,4.85H41.326
		c-22.406,0-40.635,18.228-40.635,40.633v0.499c0,22.405,18.229,40.633,40.635,40.633h5.235l14.921,26.25
		c1.437,2.529,4.121,4.09,7.029,4.09h386.581c2.907,0,5.592-1.561,7.029-4.09l15.239-26.809
		c19.235-3.199,33.948-19.946,33.948-40.074v-0.499C511.309,418.123,493.081,399.895,470.676,399.895z M349.199,395.045v-25.754
		c0-2.674,2.176-4.851,4.851-4.851h56.585c2.674,0,4.85,2.176,4.85,4.851v25.754c0,2.674-2.176,4.85-4.85,4.85h-56.585
		C351.374,399.895,349.199,397.72,349.199,395.045z M228.658,395.045v-25.754c0-2.674,2.176-4.851,4.851-4.851h56.585
		c2.674,0,4.851,2.176,4.851,4.851v25.754c0,2.674-2.176,4.85-4.851,4.85h-56.585C230.833,399.895,228.658,397.72,228.658,395.045z
		 M108.118,395.045v-25.754c0-2.674,2.176-4.851,4.851-4.851h56.587c2.674,0,4.851,2.176,4.851,4.851v25.754
		c0,2.674-2.176,4.85-4.851,4.85h-56.587C110.293,399.895,108.118,397.72,108.118,395.045z M495.141,441.027
		c0,13.491-10.975,24.465-24.465,24.465h-42.285c-4.466,0-8.084,3.618-8.084,8.084s3.618,8.084,8.084,8.084h30.053l-8.055,14.17
		H73.215l-8.055-14.17h336.286c4.466,0,8.084-3.618,8.084-8.084s-3.618-8.084-8.084-8.084H41.326
		c-13.492,0-24.467-10.975-24.467-24.465v-0.499c0-13.491,10.976-24.465,24.467-24.465h71.642h56.587h63.953h56.585h63.956h56.585
		h60.042c13.491,0,24.465,10.975,24.465,24.465L495.141,441.027L495.141,441.027z"/>
</g>
</svg>