<?xml version="1.0" encoding="utf-8"?>
<!-- Uploaded to: SVG Repo, www.svgrepo.com, Generator: SVG Repo Mixer Tools -->
<svg xmlns="http://www.w3.org/2000/svg" xmlns:xlink="http://www.w3.org/1999/xlink" version="1.1" id="cloudnetwork"  viewBox="0 0 212 212.1777" enable-background="new 0 0 212 212.1777" xml:space="preserve" width="512" height="512">
<g>
	<path fill="#D0E8FF" d="M129.1602,64.1777v-0.2773l4.2656,0.2324c0.4688,0.0312,0.9375,0.0449,1.4141,0.0449   c11.668,0,21.1602-9.4199,21.1602-21s-9.4922-21-21.1602-21c-4.1094,0-8.0938,1.168-11.5156,3.3789l-3.9492,2.5488l-1.8867-4.3008   c-3.0977-7.0625-10.1133-11.627-17.875-11.627c-9.6367,0-17.9297,7.123-19.2852,16.5703l-0.5078,3.5195l-3.5547-0.0898   c-9.0312,0-16.2656,7.1777-16.2656,16s7.2344,16,16.1289,16H104h8H129.1602z"/>
	<path fill="#D0E8FF" d="M58.7734,174.7637l-3.9258,2.5059l-1.8828-4.2578c-2.3789-5.3672-7.7695-8.834-13.7383-8.834   c-7.4062,0-13.7773,5.4082-14.8203,12.5781l-0.5117,3.5332l-3.5703-0.1113c-6.8242,0-12.3242,5.3828-12.3242,12s5.5,12,12.2578,12   h42.0664v-0.2539l4.2461,0.2188c0.3633,0.0215,0.7344,0.0352,1.1055,0.0352c9,0,16.3242-7.1777,16.3242-16s-7.3242-16-16.3242-16   C64.5,172.1777,61.4219,173.0723,58.7734,174.7637z"/>
	<path fill="#D0E8FF" d="M187.6758,172.1777c-3.1758,0-6.2539,0.8945-8.9023,2.5859l-3.9258,2.5059l-1.8828-4.2578   c-2.3789-5.3672-7.7695-8.834-13.7383-8.834c-7.4062,0-13.7773,5.4082-14.8203,12.5781l-0.5117,3.5332l-3.5703-0.1113   c-6.8242,0-12.3242,5.3828-12.3242,12s5.5,12,12.2578,12h42.0664v-0.2539l4.2461,0.2188c0.3633,0.0215,0.7344,0.0352,1.1055,0.0352   c9,0,16.3242-7.1777,16.3242-16S196.6758,172.1777,187.6758,172.1777z"/>
	<path fill="#5CB0FF" d="M120,116.1777c0-6.6172-5.3828-12-12-12s-12,5.3828-12,12s5.3828,12,12,12S120,122.7949,120,116.1777z"/>
	<path fill="#1C71DA" d="M187.6758,164.1777c-3.2812,0-6.4922,0.6465-9.4727,1.8906c-4.2266-6.1152-11.2969-9.8906-18.9766-9.8906   c-3.8088,0-7.4377,0.9463-10.6431,2.6152l-25.8105-29.252c3.2139-3.5508,5.2271-8.209,5.2271-13.3633   c0-9.6582-6.8828-17.7373-16-19.5957V72.1777h21.1602L134,72.166c0.2773,0.0078,0.5586,0.0117,0.8398,0.0117   c0.5508,0,1.0977-0.0156,1.6406-0.0449l0.6797-0.0098v-0.0371C152.1562,70.9062,164,58.3906,164,43.1777   c0-15.9902-13.082-29-29.1602-29c-4.1992,0-8.3047,0.8887-12.0742,2.5957c-5-7.7676-13.6836-12.5957-23.1523-12.5957   c-12.4648,0-23.3398,8.4766-26.5352,20.1914C61.2109,25.8633,52,35.9707,52,48.1777c0,13.2344,10.8242,24,24.1289,24H104V96.582   c-9.1172,1.8584-16,9.9375-16,19.5957c0,5.2051,2.0471,9.9111,5.3184,13.4736l-27.323,34.6094   c-2.6936,0.1826-5.3237,0.7773-7.7922,1.8076c-4.2266-6.1152-11.2969-9.8906-18.9766-9.8906   c-10.2266,0-19.1758,6.7832-22.0234,16.2266C7.4766,173.8633,0,182.1758,0,192.1777c0,11.0273,9.0859,20,20.2578,20h46.0664   l0.7344-0.0078c0.2031,0.0059,0.4102,0.0078,0.6172,0.0078c0.3906,0,0.7773-0.0098,1.1602-0.0273l1.4883-0.0156v-0.0977   C82.4961,210.7305,92,200.5293,92,188.1777c0-10.6094-7.0178-19.6162-16.7092-22.7783l24.4985-31.0312   c2.512,1.1387,5.2778,1.8096,8.2107,1.8096c2.9744,0,5.7734-0.6953,8.313-1.8652l25.9287,29.3857   c-2.2739,2.4717-4.0452,5.4111-5.0386,8.7061C127.4766,173.8633,120,182.1758,120,192.1777c0,11.0273,9.0859,20,20.2578,20h46.0664   l0.7344-0.0078c0.2031,0.0059,0.4102,0.0078,0.6172,0.0078c0.3906,0,0.7773-0.0098,1.1602-0.0273l1.4883-0.0156v-0.0977   C202.4961,210.7305,212,200.5293,212,188.1777C212,174.9434,201.0898,164.1777,187.6758,164.1777z M76.1289,64.1777   C67.2344,64.1777,60,57,60,48.1777s7.2344-16,16.2656-16l3.5547,0.0898l0.5078-3.5195   c1.3555-9.4473,9.6484-16.5703,19.2852-16.5703c7.7617,0,14.7773,4.5645,17.875,11.627l1.8867,4.3008l3.9492-2.5488   c3.4219-2.2109,7.4062-3.3789,11.5156-3.3789c11.668,0,21.1602,9.4199,21.1602,21s-9.4922,21-21.1602,21   c-0.4766,0-0.9453-0.0137-1.4141-0.0449l-4.2656-0.2324v0.2773H112h-8H76.1289z M84,188.1777c0,8.8223-7.3242,16-16.3242,16   c-0.3711,0-0.7422-0.0137-1.1055-0.0352l-4.2461-0.2188v0.2539H20.2578c-6.7578,0-12.2578-5.3828-12.2578-12s5.5-12,12.3242-12   l3.5703,0.1113l0.5117-3.5332c1.043-7.1699,7.4141-12.5781,14.8203-12.5781c5.9688,0,11.3594,3.4668,13.7383,8.834l1.8828,4.2578   l3.9258-2.5059c2.6484-1.6914,5.7266-2.5859,8.9023-2.5859C76.6758,172.1777,84,179.3555,84,188.1777z M96,116.1777   c0-6.6172,5.3828-12,12-12s12,5.3828,12,12s-5.3828,12-12,12S96,122.7949,96,116.1777z M187.6758,204.1777   c-0.3711,0-0.7422-0.0137-1.1055-0.0352l-4.2461-0.2188v0.2539h-42.0664c-6.7578,0-12.2578-5.3828-12.2578-12s5.5-12,12.3242-12   l3.5703,0.1113l0.5117-3.5332c1.043-7.1699,7.4141-12.5781,14.8203-12.5781c5.9688,0,11.3594,3.4668,13.7383,8.834l1.8828,4.2578   l3.9258-2.5059c2.6484-1.6914,5.7266-2.5859,8.9023-2.5859c9,0,16.3242,7.1777,16.3242,16S196.6758,204.1777,187.6758,204.1777z"/>
</g>
<path fill="#FF5D5D" d="M160.252,104.002c-1.0234,0-2.0479-0.3904-2.8281-1.1716c-1.5625-1.5623-1.5625-4.095,0-5.657  l14.1426-14.1416c1.5625-1.5615,4.0957-1.5623,5.6562,0.0002c1.5625,1.5623,1.5625,4.095,0,5.657l-14.1426,14.1416  C162.2988,103.6113,161.2754,104.002,160.252,104.002z"/>
<path fill="#FF5D5D" d="M174.3945,104c-1.0234,0-2.0479-0.3906-2.8281-1.1716l-14.1426-14.1426  c-1.5625-1.562-1.5625-4.0947,0-5.6567c1.5605-1.562,4.0957-1.562,5.6562,0l14.1426,14.1426c1.5625,1.562,1.5625,4.0947,0,5.6567  C176.4424,103.6094,175.418,104,174.3945,104z"/>
<path fill="#00D40B" d="M26.252,140.002c-7.7197,0-14-6.2803-14-14s6.2803-14,14-14s14,6.2803,14,14S33.9717,140.002,26.252,140.002  z M26.252,120.002c-3.3086,0-6,2.6917-6,6s2.6914,6,6,6s6-2.6917,6-6S29.5605,120.002,26.252,120.002z"/>
<path fill="#FFC504" d="M47.5664,30.627c-1.0234,0-2.0469-0.3904-2.8281-1.1714L33.4238,18.1421  c-0.75-0.7502-1.1719-1.7676-1.1719-2.8286s0.4219-2.0784,1.1719-2.8286L44.7383,1.1714c1.5625-1.5615,4.0938-1.5623,5.6562,0.0002  L61.708,12.4851c1.5625,1.562,1.5625,4.0947,0,5.6567L50.3945,29.4553C49.6143,30.2363,48.5898,30.627,47.5664,30.627z   M41.9092,15.3135l5.6572,5.6567l5.6562-5.6567l-5.6562-5.6567L41.9092,15.3135z"/>
</svg>